<svg width="93" height="91" viewBox="0 0 93 91" fill="none" xmlns="http://www.w3.org/2000/svg">
<path d="M89.4147 90.3157C85.8238 88.9986 82.3791 87.5117 78.9221 85.8671C75.8046 84.5144 72.0559 83.2091 69.3526 81.0316C67.8372 79.8759 69.0558 77.086 70.9972 77.5748C70.9972 77.5748 71.1551 77.563 71.1669 77.7208C71.6167 77.3695 71.9089 77.0301 72.3465 76.521C72.3346 76.3632 72.4684 76.0357 72.4566 75.8779C72.5907 75.5503 72.8826 75.2109 73.1747 74.8715C67.9567 66.6931 63.0544 58.4909 57.0948 51.0032C55.3384 48.7544 53.4359 46.6755 51.2301 44.778C46.785 53.207 39.278 63.1361 29.2043 62.1478C15.9265 60.7657 21.9724 46.1851 28.4028 40.9396C36.0128 34.4947 42.981 34.288 50.3409 39.2897C53.0938 33.6861 54.8526 27.5228 54.0975 21.7067C52.5676 7.69565 39.7633 6.27812 29.4619 10.7035C31.3488 14.6883 32.1783 19.3872 31.54 23.5622C30.5197 31.0988 19.6546 38.5822 12.6341 33.8724C5.77148 29.1508 16.9271 14.9793 20.671 11.9992C21.7164 11.127 22.9197 10.2432 24.1349 9.5169C23.9652 9.37094 23.9533 9.21286 23.7836 9.06716C15.6689 -1.75037 6.77733 8.75901 2.96354 17.1406C2.42719 18.4507 0.607993 17.4764 0.986514 16.1782C3.98743 7.54036 10.6694 -2.80283 21.0398 2.13112C23.5141 3.37351 25.7202 5.27095 27.3305 7.68935C35.7499 3.56429 45.8511 2.80458 52.7575 10.2211C61.0454 19.121 57.2367 31.7876 52.8747 41.3214C53.0442 41.4674 53.0442 41.4674 53.2141 41.6134C62.8632 49.6173 69.313 61.5123 75.8257 72.1329C76.8712 71.2607 78.0747 70.3765 79.1199 69.5043C79.8737 68.9715 80.9903 69.0462 81.6689 69.6301C86.6495 74.652 90.6083 80.8617 92.2473 87.8809C92.8513 89.5811 91.2105 90.9743 89.4147 90.3157ZM44.3674 40.0566C38.1088 37.0355 32.4319 41.7479 28.3213 46.1838C22.8853 51.9891 25.1164 60.5509 33.982 58.1379C38.4878 56.8467 41.8092 52.4702 44.5587 48.9303C46.0064 47.0755 47.4306 44.9053 48.6849 42.5889C47.3391 41.5788 45.8472 40.7387 44.3674 40.0566ZM26.1086 12.5429C26.1086 12.5429 25.9508 12.5547 26.1086 12.5429C22.0134 15.0727 19.0943 18.4669 16.8658 22.6022C15.8916 24.4214 15.0871 26.3866 14.7679 28.4739C13.5932 33.9588 21.9141 30.6347 24.0406 29.3637C29.7888 25.5983 28.7455 18.0582 26.1086 12.5429ZM80.0835 73.8758C79.9257 73.8876 79.9376 74.0455 79.7798 74.0573C79.8154 74.5308 79.5351 75.0281 78.9278 75.3912C77.8586 75.9477 76.8013 76.6621 75.7437 77.3766C75.2939 77.7278 74.4182 78.746 74.3945 78.4304C74.4063 78.5882 74.2604 78.7579 74.1025 78.7698C75.9096 79.5862 77.7409 80.7182 79.548 81.5346C81.8526 82.631 84.3149 83.7156 86.7776 84.8001C85.3765 80.9375 83.028 77.1461 80.0835 73.8758Z" fill="#08082A"/>
</svg>
